HIERARCHY
ROOT hip
{
  OFFSET 0 0 0
  CHANNELS 6 Xposition Yposition Zposition Zrotation Yrotation Xrotation
  JOINT abdomen
  {
    OFFSET 0 20.6881 -0.73152
    CHANNELS 3 Zrotation Xrotation Yrotation
    JOINT chest
    {
      OFFSET 0 11.7043 -0.48768
      CHANNELS 3 Zrotation Xrotation Yrotation
      JOINT neck
      {
        OFFSET 0 22.1894 -2.19456
        CHANNELS 3 Zrotation Xrotation Yrotation
        JOINT head
        {
          OFFSET -0.24384 7.07133 1.2192
          CHANNELS 3 Zrotation Xrotation Yrotation
          JOINT leftEye
          {
            OFFSET 4.14528 8.04674 8.04672
            CHANNELS 3 Zrotation Xrotation Yrotation
            End Site
            {
              OFFSET 1 0 0
            }
          }
          JOINT rightEye
          {
            OFFSET -3.6576 8.04674 8.04672
            CHANNELS 3 Zrotation Xrotation Yrotation
            End Site
            {
              OFFSET 1 0 0
            }
          }
        }
      }
      JOINT rCollar
      {
        OFFSET -2.68224 19.2634 -4.8768
        CHANNELS 3 Zrotation Xrotation Yrotation
        JOINT rShldr
        {
          OFFSET -8.77824 -1.95073 1.46304
          CHANNELS 3 Zrotation Xrotation Yrotation
          JOINT rForeArm
          {
            OFFSET -28.1742 -1.7115 0.48768
            CHANNELS 3 Zrotation Xrotation Yrotation
            JOINT rHand
            {
              OFFSET -22.5879 0.773209 7.07136
              CHANNELS 3 Zrotation Xrotation Yrotation
              JOINT rThumb1
              {
                OFFSET -1.2192 -0.487915 3.41376
                CHANNELS 3 Zrotation Xrotation Yrotation
                JOINT rThumb2
                {
                  OFFSET -3.37035 -0.52449 3.41376
                  CHANNELS 3 Zrotation Xrotation Yrotation
                  End Site
                  {
                    OFFSET -1.78271 -1.18214 1.43049
                  }
                }
              }
              JOINT rIndex1
              {
                OFFSET -7.75947 0.938293 5.60832
                CHANNELS 3 Zrotation Xrotation Yrotation
                JOINT rIndex2
                {
                  OFFSET -2.54057 -0.884171 1.56538
                  CHANNELS 3 Zrotation Xrotation Yrotation
                  End Site
                  {
                    OFFSET -1.62519 -0.234802 1.16502
                  }
                }
              }
              JOINT rMid1
              {
                OFFSET -8.24714 1.18213 3.41376
                CHANNELS 3 Zrotation Xrotation Yrotation
                JOINT rMid2
                {
                  OFFSET -3.10165 -0.590103 1.0647
                  CHANNELS 3 Zrotation Xrotation Yrotation
                  End Site
                  {
                    OFFSET -2.48547 -0.328903 0.83742
                  }
                }
              }
              JOINT rRing1
              {
                OFFSET -8.82822 0.546677 1.51678
                CHANNELS 3 Zrotation Xrotation Yrotation
                JOINT rRing2
                {
                  OFFSET -2.60934 -0.819778 -0.0198488
                  CHANNELS 3 Zrotation Xrotation Yrotation
                  End Site
                  {
                    OFFSET -2.33842 -0.294052 0.168128
                  }
                }
              }
              JOINT rPinky1
              {
                OFFSET -8.27202 -0.0477905 -0.4584
                CHANNELS 3 Zrotation Xrotation Yrotation
                JOINT rPinky2
                {
                  OFFSET -1.82734 -0.647385 -0.700984
                  CHANNELS 3 Zrotation Xrotation Yrotation
                  End Site
                  {
                    OFFSET -1.69225 -0.51767 -0.607171
                  }
                }
              }
            }
          }
        }
      }
      JOINT lCollar
      {
        OFFSET 2.68224 19.2634 -4.8768
        CHANNELS 3 Zrotation Xrotation Yrotation
        JOINT lShldr
        {
          OFFSET 8.77824 -1.95073 1.46304
          CHANNELS 3 Zrotation Xrotation Yrotation
          JOINT lForeArm
          {
            OFFSET 28.1742 -1.7115 0.48768
            CHANNELS 3 Zrotation Xrotation Yrotation
            JOINT lHand
            {
              OFFSET 22.5879 0.773209 7.07136
              CHANNELS 3 Zrotation Xrotation Yrotation
              JOINT lThumb1
              {
                OFFSET 1.2192 -0.487915 3.41376
                CHANNELS 3 Zrotation Xrotation Yrotation
                JOINT lThumb2
                {
                  OFFSET 3.37035 -0.52449 3.41376
                  CHANNELS 3 Zrotation Xrotation Yrotation
                  End Site
                  {
                    OFFSET 1.78271 -1.18214 1.43049
                  }
                }
              }
              JOINT lIndex1
              {
                OFFSET 7.75947 0.938293 5.60832
                CHANNELS 3 Zrotation Xrotation Yrotation
                JOINT lIndex2
                {
                  OFFSET 2.54057 -0.884171 1.56538
                  CHANNELS 3 Zrotation Xrotation Yrotation
                  End Site
                  {
                    OFFSET 1.62519 -0.234802 1.16502
                  }
                }
              }
              JOINT lMid1
              {
                OFFSET 8.24714 1.18213 3.41376
                CHANNELS 3 Zrotation Xrotation Yrotation
                JOINT lMid2
                {
                  OFFSET 3.10165 -0.590103 1.0647
                  CHANNELS 3 Zrotation Xrotation Yrotation
                  End Site
                  {
                    OFFSET 2.48547 -0.328903 0.83742
                  }
                }
              }
              JOINT lRing1
              {
                OFFSET 8.82822 0.546677 1.51678
                CHANNELS 3 Zrotation Xrotation Yrotation
                JOINT lRing2
                {
                  OFFSET 2.60934 -0.819778 -0.0198488
                  CHANNELS 3 Zrotation Xrotation Yrotation
                  End Site
                  {
                    OFFSET 2.33842 -0.294052 0.168128
                  }
                }
              }
              JOINT lPinky1
              {
                OFFSET 8.27202 -0.0477905 -0.4584
                CHANNELS 3 Zrotation Xrotation Yrotation
                JOINT lPinky2
                {
                  OFFSET 1.82734 -0.647385 -0.700984
                  CHANNELS 3 Zrotation Xrotation Yrotation
                  End Site
                  {
                    OFFSET 1.69225 -0.51767 -0.607171
                  }
                }
              }
            }
          }
        }
      }
    }
  }
  JOINT rButtock
  {
    OFFSET -8.77824 4.35084 1.2192
    CHANNELS 3 Zrotation Xrotation Yrotation
    JOINT rThigh
    {
      OFFSET 0 -1.70687 -2.19456
      CHANNELS 3 Zrotation Xrotation Yrotation
      JOINT rShin
      {
        OFFSET 0 -36.8199 0.73152
        CHANNELS 3 Zrotation Xrotation Yrotation
        JOINT rFoot
        {
          OFFSET 0.73152 -45.1104 -5.12064
          CHANNELS 3 Zrotation Xrotation Yrotation
          End Site
          {
            OFFSET -1.1221 -3.69964 12.103
          }
        }
      }
    }
  }
  JOINT lButtock
  {
    OFFSET 8.77824 4.35084 1.2192
    CHANNELS 3 Zrotation Xrotation Yrotation
    JOINT lThigh
    {
      OFFSET 0 -1.70687 -2.19456
      CHANNELS 3 Zrotation Xrotation Yrotation
      JOINT lShin
      {
        OFFSET 0 -36.8199 0.73152
        CHANNELS 3 Zrotation Xrotation Yrotation
        JOINT lFoot
        {
          OFFSET -0.73152 -45.1104 -5.12064
          CHANNELS 3 Zrotation Xrotation Yrotation
          End Site
          {
            OFFSET 1.1221 -3.69964 12.103
          }
        }
      }
    }
  }
}
MOTION
Frames:	6
Frame Time:	0.03333
0.8043 44.6944 -3.7767000000000004 0.405092 -26.462468 8.43773 -3.981953 19.243777 -25.859248 11.779266 -10.638618 15.995105 7.026183 32.293812 114.348235 -39.714747 22.08052 -162.332154 0.001362 -0.0 -0.001483 0.001362 -0.0 -0.001483 -40.039163 -86.056165 -61.570133 -53.874751 -58.594361 -73.164054 -54.291118 23.526216 -157.701129 68.170965 -75.246973 51.509412 -158.000146 4.195057 88.450348 -81.372865 1.627968 32.725429 -166.822095 -43.973622 122.062007 -70.506706 57.296772 56.093553 -10.977178 25.789445 7.641208 5.82222 -7.57453 -0.841736 -145.100837 -1.522475 -178.650737 12.213219 36.613629 -4.850269 -145.174168 12.066218 -141.825406 -162.405595 55.862924 -146.681539 -0.022341 -0.13874 0.030545 103.396654 -14.637656 -148.51391 167.273676 -26.290246 68.517105 5.390822 6.869283 1.168782 4.034993 3.931514 -0.754952 -10.10048 -12.303253 4.946869 -37.216499 -57.9176 0.643417 -111.420379 -65.337673 -51.788305 160.340494 -5.644411 -143.087533 -2.659942 1.633687 -0.58703 -0.000532 0.063829 -0.019685 -8.443535 19.53508 -2.745042 54.049237 -50.327301 52.730152 81.458782 -53.647757 81.960571 -0.000434 0.000568 -0.000651 -94.927844 -63.979172 85.569568 135.925694 -67.488296 52.92423 -171.877001 53.437589 81.890739 0.000152 0.000568 -0.000195 77.175415 -47.075916 149.473131 102.315946 -0.594009 -90.017093 -151.216465 -16.818657 -22.269744
0.6597000000000001 45.0144 -3.9572999999999996 0.625579 -26.832107 8.569713 -5.362147 14.918137 -180.0 -6.969348 10.19627 169.844947 -1.40963 19.818335 25.097633 -12.505113 -30.019516 -83.154018 -2.6e-05 0.0 -0.001672 -0.000126 -0.0 0.004045 -3.908234 18.449238 4.803885 -127.798869 2.668663 156.807234 -165.139083 39.58559 -74.086415 -5.580322 -0.177812 -2.145412 -78.0309 38.689627 42.412362 22.227662 -25.460037 20.036159 37.215569 -57.917889 -0.643402 -178.727938 -43.706707 106.628257 68.982417 -80.154565 40.577704 -7.586437 26.125498 6.220596 0.005399 0.876755 0.274981 8.044099 22.049933 3.179934 26.853202 80.011827 10.218514 2.709345 3.610591 0.132648 85.53746 68.181664 -88.688826 -88.144269 -27.15757 -111.896576 24.909897 -1.617615 -112.692038 -2.097195 -16.567032 1.025795 82.979323 38.721749 -45.931129 -179.725912 -44.596611 -77.053258 161.901578 -36.243244 -122.687485 157.760904 -12.250748 -119.400724 160.888875 -7.337291 -143.346717 144.243093 37.074489 -131.224497 70.378751 -72.128873 87.280813 150.971985 -0.757256 -176.390574 -1.298902 3.491547 -1.192365 128.826966 -29.158158 127.092839 -179.997557 75.750076 -0.00252 152.490551 -14.485788 115.655941 99.492654 -5.253824 -116.120734 -18.242805 -35.631832 32.573317 -0.000808 0.000468 -0.001212 77.349645 -45.232696 -20.133765 -114.766095 10.034896 -97.468557 60.404379 48.391081 167.775669
0.44780000000000003 45.4036 -4.1593 1.0045 -27.234542 8.576329 -5.676855 20.063858 1.730402 6.667276 -15.220932 -11.174636 -13.982601 34.967424 -109.977219 42.691277 28.859234 47.022198 -0.000776 0.0 -0.001715 -0.000776 0.0 -0.001715 4.209268 -43.443101 -8.383688 42.990657 24.958894 -13.941934 -178.851039 15.927328 31.106448 -179.978275 -5.721662 143.315713 -78.030827 38.688468 42.412748 -107.46733 -10.890163 75.30451 -172.897383 -51.894213 120.179114 -149.913512 0.947622 117.685397 -166.118905 -24.03988 145.07718 9.916792 -20.342371 -1.148274 0.005061 1.770437 0.556266 -150.982965 35.18825 165.819582 -14.911842 -27.548443 -14.216924 -128.217602 -28.977708 -127.031259 85.537881 68.182216 -88.688768 -102.06908 -21.243676 -116.831927 -16.620609 41.326316 -100.926566 13.524304 29.456345 -1.940091 7.759018 7.438892 -1.682045 -13.181554 -15.070221 4.371942 83.731922 42.330612 -69.990371 -0.68057 8.703295 3.191689 161.518828 -9.304311 -143.625225 -3.423611 -0.620066 -0.27938 132.481878 54.103773 -155.535264 75.266549 -80.117634 93.033504 143.938915 8.265811 140.718317 76.203982 -52.929709 75.908424 -179.995085 75.748604 -0.005071 154.602697 -13.083931 -43.751103 -110.0113 34.216667 -139.094201 123.423747 68.475888 145.213319 179.950516 75.750871 0.040715 -138.131643 0.573417 0.506284 163.855447 72.116977 89.989166 -143.80209 58.246033 -124.86509
0.179 45.803700000000006 -4.3777 1.330281 -27.604582 8.521104 -7.863488 19.454668 55.450651 -6.707399 -15.258652 -66.164027 -10.912984 21.337513 -24.2682 27.102044 -25.6486 -22.930523 0.001668 -0.0 -0.001187 -0.004205 -0.0 0.004116 3.446508 -62.74083 -13.274615 39.29171 27.009007 -22.744355 89.454351 43.881371 71.568552 -101.334269 68.701448 79.381585 -169.15438 -6.833647 89.914582 14.086461 -59.098888 16.226579 -16.403678 21.463676 11.218576 176.813522 -37.399853 105.470501 -39.290178 53.365837 32.877852 3.050297 1.060011 0.221603 0.005085 0.876186 0.275422 -154.203922 13.728306 169.957988 -162.357332 72.063492 -150.909757 -129.06413 -28.352172 -125.809865 40.763538 63.150428 -43.382017 81.782527 11.582212 -79.490423 58.508868 46.815043 96.494385 -150.758431 -57.762536 -129.245268 121.363819 30.329112 -71.958015 0.823122 -28.140377 -25.072878 46.208 39.653447 -36.317906 -77.64151 -61.324328 -31.715589 -23.903842 -61.333838 -1.398087 172.317341 -31.321345 -143.971378 0.000891 -0.018422 0.006235 154.387965 11.216808 -170.331789 -8.36858 26.42675 -7.361426 -62.749715 85.71876 24.981263 0.000126 0.000342 -0.000161 -94.785995 -64.659131 85.672684 139.441983 -63.408734 94.859737 -50.908554 -1.233691 -143.547904 179.997523 75.7493 0.002186 -139.641299 0.378603 91.136574 112.832594 -14.46269 57.957403 127.043469 60.885277 126.45147
-0.1674 46.2832 -4.5832 1.692929 -28.036418 8.537407 -5.939704 20.837821 -0.0 6.926348 -15.208142 -8.945618 7.221796 30.17524 103.529199 -42.279839 15.835155 -152.552338 -0.001935 0.0 -0.000219 -0.001935 0.0 -0.000219 -157.796952 -22.115432 165.467486 -102.567247 -79.197008 -84.272016 15.379611 27.481107 -153.981229 -176.484599 5.141625 142.589724 -5.175605 5.020071 1.015234 -37.060313 24.441207 35.37477 -151.978288 -18.318446 121.32824 -154.998252 -2.561379 118.906344 173.124692 -66.297867 137.616041 -167.087023 -15.825995 143.881489 0.006099 1.772419 0.55613 -145.341017 52.640766 159.594787 16.519203 57.858697 12.546085 -85.827789 -53.423362 -84.407385 149.905432 22.421861 -154.975503 152.692424 84.758774 -97.457713 -68.866836 -59.589806 86.057046 175.509088 16.13806 -142.728717 166.631212 -4.305132 -89.77045 144.450442 5.14247 -72.647947 -169.569885 -65.842854 -109.957759 147.635714 2.914847 -116.461751 -78.538461 -80.918475 -49.689807 -9.720214 -20.378597 1.342444 0.020894 -1.725114 0.542753 -7.053122 29.717184 -4.673918 128.960643 -23.654093 126.606598 84.600551 -52.209444 84.673382 -179.993164 75.748825 -0.007053 155.099067 -13.803263 -93.583875 -98.988265 -20.450236 89.566378 -115.734595 -5.821226 11.969386 179.997767 75.748404 0.002303 -139.917294 1.517836 86.249236 99.962153 -3.20827 -135.90054 -142.887065 -68.183369 -61.410327
-0.5544 46.8174 -4.8002 1.865497 -28.500602 8.649952 -4.067168 17.26522 -128.940367 6.125354 10.871583 118.166877 -15.583388 28.917315 -73.859198 45.841349 3.84062 20.434126 0.001854 -0.0 -0.000757 0.00175 -0.0 -0.001092 -81.708174 68.336536 84.818699 178.800834 -12.303668 134.222894 -25.567757 19.115854 128.908208 2.059579 -24.623934 -2.121823 -12.767457 11.915193 3.254759 -4.609743 5.365 11.242529 -140.762319 1.381192 116.230632 1.94703 14.012394 -6.591507 -167.375916 -28.008597 145.267981 2.581411 1.621258 0.570862 -75.673836 -72.11598 -92.828977 -85.886571 83.058017 103.786886 -55.229824 -50.539225 -53.897865 -2.102752 -13.055161 -5.404479 0.048716 0.292412 -0.065068 -63.210951 20.703019 -34.2213 -100.866191 37.194378 -54.817616 128.361423 67.362962 -105.69595 121.365617 30.329937 -71.957464 -174.287622 -33.778779 -77.155587 148.886912 -12.609627 -120.244607 156.070347 -3.56024 -118.942353 36.034546 51.723565 -29.832005 -29.658245 -60.160728 -6.552056 0.013277 -1.323297 0.414967 155.302591 -1.0407 -171.975838 -32.024124 83.319844 -6.224524 -9.934001 26.434622 -5.125242 179.999426 75.750528 0.000593 152.647498 -13.716168 85.9827 102.637177 13.01906 -11.70336 -126.195008 72.025232 38.037175 0.0 -1e-06 0.0011 70.713351 -44.937629 0.0 -97.796048 35.779906 90.41674 93.338004 0.67992 0.767309
